<mxfile host="app.diagrams.net" modified="2022-07-06T07:10:21.826Z" agent="5.0 (Windows)" etag="ehKuhY2TiJFH6iD6AKQa" version="20.0.4" type="github">
  <diagram id="LT1MwlxdsC5UkgZRmnNs" name="Page-1">
    <mxGraphModel dx="1673" dy="918" grid="1" gridSize="10" guides="1" tooltips="1" connect="1" arrows="1" fold="1" page="1" pageScale="1" pageWidth="827" pageHeight="1169" math="0" shadow="0">
      <root>
        <mxCell id="0" />
        <mxCell id="1" parent="0" />
        <mxCell id="HVg5W-mPSef3V78qNZUp-1" value="Getting all Chats per User" style="text;html=1;align=center;verticalAlign=middle;resizable=0;points=[];autosize=1;strokeColor=none;fillColor=none;" vertex="1" parent="1">
          <mxGeometry x="257.5" y="630" width="170" height="30" as="geometry" />
        </mxCell>
        <mxCell id="HVg5W-mPSef3V78qNZUp-2" value="QUERY PK: userID &amp;amp;&amp;amp;" style="text;html=1;align=center;verticalAlign=middle;resizable=0;points=[];autosize=1;strokeColor=none;fillColor=none;" vertex="1" parent="1">
          <mxGeometry x="257.5" y="660" width="150" height="30" as="geometry" />
        </mxCell>
        <mxCell id="HVg5W-mPSef3V78qNZUp-3" value="QUERY Inverted Keys GSI PK: senderId" style="text;html=1;align=center;verticalAlign=middle;resizable=0;points=[];autosize=1;strokeColor=none;fillColor=none;" vertex="1" parent="1">
          <mxGeometry x="220" y="680" width="240" height="30" as="geometry" />
        </mxCell>
        <mxCell id="HVg5W-mPSef3V78qNZUp-8" value="&lt;div style=&quot;font-size: 22px;&quot;&gt;&lt;b&gt;&lt;font style=&quot;font-size: 22px;&quot;&gt;CHAT SERVICE&lt;/font&gt;&lt;/b&gt;&lt;/div&gt;" style="text;html=1;align=center;verticalAlign=middle;resizable=0;points=[];autosize=1;strokeColor=none;fillColor=none;" vertex="1" parent="1">
          <mxGeometry x="319" y="50" width="190" height="40" as="geometry" />
        </mxCell>
        <mxCell id="HVg5W-mPSef3V78qNZUp-9" value="&lt;div style=&quot;font-size: 17px;&quot;&gt;&lt;font style=&quot;font-size: 17px;&quot;&gt;Tables&lt;/font&gt;&lt;/div&gt;" style="text;html=1;align=center;verticalAlign=middle;resizable=0;points=[];autosize=1;strokeColor=none;fillColor=none;strokeWidth=7;fontStyle=1" vertex="1" parent="1">
          <mxGeometry x="100" y="120" width="80" height="30" as="geometry" />
        </mxCell>
        <mxCell id="HVg5W-mPSef3V78qNZUp-10" value="&lt;div style=&quot;font-size: 17px;&quot;&gt;&lt;font style=&quot;font-size: 17px;&quot;&gt;Lambdas&lt;/font&gt;&lt;/div&gt;" style="text;html=1;align=center;verticalAlign=middle;resizable=0;points=[];autosize=1;strokeColor=none;fillColor=none;strokeWidth=7;fontStyle=1" vertex="1" parent="1">
          <mxGeometry x="100" y="550" width="100" height="30" as="geometry" />
        </mxCell>
        <mxCell id="HVg5W-mPSef3V78qNZUp-11" value="POST : createChat" style="text;html=1;align=center;verticalAlign=middle;resizable=0;points=[];autosize=1;strokeColor=none;fillColor=none;fontSize=17;" vertex="1" parent="1">
          <mxGeometry x="65" y="600" width="170" height="30" as="geometry" />
        </mxCell>
        <mxCell id="HVg5W-mPSef3V78qNZUp-12" value="GET: getChats" style="text;html=1;align=center;verticalAlign=middle;resizable=0;points=[];autosize=1;strokeColor=none;fillColor=none;fontSize=17;" vertex="1" parent="1">
          <mxGeometry x="75" y="649.5" width="130" height="30" as="geometry" />
        </mxCell>
        <mxCell id="HVg5W-mPSef3V78qNZUp-13" value="" style="endArrow=classic;html=1;rounded=0;fontSize=17;" edge="1" parent="1" source="HVg5W-mPSef3V78qNZUp-2" target="HVg5W-mPSef3V78qNZUp-12">
          <mxGeometry width="50" height="50" relative="1" as="geometry">
            <mxPoint x="390" y="530" as="sourcePoint" />
            <mxPoint x="440" y="480" as="targetPoint" />
          </mxGeometry>
        </mxCell>
        <mxCell id="HVg5W-mPSef3V78qNZUp-14" value="POST : sendMessage" style="text;html=1;align=center;verticalAlign=middle;resizable=0;points=[];autosize=1;strokeColor=none;fillColor=none;fontSize=17;" vertex="1" parent="1">
          <mxGeometry x="55" y="750" width="190" height="30" as="geometry" />
        </mxCell>
        <mxCell id="HVg5W-mPSef3V78qNZUp-15" value="GET: getMessages" style="text;html=1;align=center;verticalAlign=middle;resizable=0;points=[];autosize=1;strokeColor=none;fillColor=none;fontSize=17;" vertex="1" parent="1">
          <mxGeometry x="65" y="790" width="170" height="30" as="geometry" />
        </mxCell>
        <mxCell id="HVg5W-mPSef3V78qNZUp-16" value="POST: updateSeenStatus(messageIds [])" style="text;html=1;align=center;verticalAlign=middle;resizable=0;points=[];autosize=1;strokeColor=none;fillColor=none;fontSize=17;" vertex="1" parent="1">
          <mxGeometry x="20" y="860" width="330" height="30" as="geometry" />
        </mxCell>
        <mxCell id="HVg5W-mPSef3V78qNZUp-20" value="When Opening the Chat" style="text;html=1;align=center;verticalAlign=middle;resizable=0;points=[];autosize=1;strokeColor=none;fillColor=none;" vertex="1" parent="1">
          <mxGeometry x="100" y="890" width="150" height="30" as="geometry" />
        </mxCell>
        <mxCell id="HVg5W-mPSef3V78qNZUp-21" value="&lt;div style=&quot;font-size: 17px;&quot;&gt;&lt;font style=&quot;font-size: 17px;&quot;&gt;Socket Connection Service&lt;br&gt;&lt;/font&gt;&lt;/div&gt;" style="text;html=1;align=center;verticalAlign=middle;resizable=0;points=[];autosize=1;strokeColor=none;fillColor=none;strokeWidth=7;fontStyle=1" vertex="1" parent="1">
          <mxGeometry x="50" y="970" width="240" height="30" as="geometry" />
        </mxCell>
        <mxCell id="HVg5W-mPSef3V78qNZUp-23" value="&lt;div&gt;need to add new route&lt;/div&gt;&lt;div&gt;Send message to Backend with chatId&lt;/div&gt;&lt;div&gt;sendMessage back to client and update chat if it&#39;s chat for the current user&lt;br&gt;&lt;/div&gt;" style="text;html=1;align=left;verticalAlign=middle;resizable=0;points=[];autosize=1;strokeColor=none;fillColor=none;fontSize=17;" vertex="1" parent="1">
          <mxGeometry x="55" y="1000" width="580" height="70" as="geometry" />
        </mxCell>
        <mxCell id="HVg5W-mPSef3V78qNZUp-24" value="chat Table" style="swimlane;fontStyle=0;childLayout=stackLayout;horizontal=1;startSize=30;horizontalStack=0;resizeParent=1;resizeParentMax=0;resizeLast=0;collapsible=1;marginBottom=0;" vertex="1" parent="1">
          <mxGeometry x="75" y="170" width="230" height="330" as="geometry" />
        </mxCell>
        <mxCell id="HVg5W-mPSef3V78qNZUp-25" value="PK: userId || chatId " style="text;strokeColor=none;fillColor=none;align=left;verticalAlign=middle;spacingLeft=4;spacingRight=4;overflow=hidden;points=[[0,0.5],[1,0.5]];portConstraint=eastwest;rotatable=0;" vertex="1" parent="HVg5W-mPSef3V78qNZUp-24">
          <mxGeometry y="30" width="230" height="30" as="geometry" />
        </mxCell>
        <mxCell id="HVg5W-mPSef3V78qNZUp-26" value="SK: receieverId || createdDate" style="text;strokeColor=none;fillColor=none;align=left;verticalAlign=middle;spacingLeft=4;spacingRight=4;overflow=hidden;points=[[0,0.5],[1,0.5]];portConstraint=eastwest;rotatable=0;" vertex="1" parent="HVg5W-mPSef3V78qNZUp-24">
          <mxGeometry y="60" width="230" height="30" as="geometry" />
        </mxCell>
        <mxCell id="HVg5W-mPSef3V78qNZUp-27" value="type: &quot;CHAT&quot; or &quot;MESSAGE&quot;" style="text;strokeColor=none;fillColor=none;align=left;verticalAlign=middle;spacingLeft=4;spacingRight=4;overflow=hidden;points=[[0,0.5],[1,0.5]];portConstraint=eastwest;rotatable=0;" vertex="1" parent="HVg5W-mPSef3V78qNZUp-24">
          <mxGeometry y="90" width="230" height="30" as="geometry" />
        </mxCell>
        <mxCell id="HVg5W-mPSef3V78qNZUp-28" value="chatId" style="text;strokeColor=none;fillColor=none;align=left;verticalAlign=middle;spacingLeft=4;spacingRight=4;overflow=hidden;points=[[0,0.5],[1,0.5]];portConstraint=eastwest;rotatable=0;" vertex="1" parent="HVg5W-mPSef3V78qNZUp-24">
          <mxGeometry y="120" width="230" height="30" as="geometry" />
        </mxCell>
        <mxCell id="HVg5W-mPSef3V78qNZUp-4" value="message:" style="text;strokeColor=none;fillColor=none;align=left;verticalAlign=middle;spacingLeft=4;spacingRight=4;overflow=hidden;points=[[0,0.5],[1,0.5]];portConstraint=eastwest;rotatable=0;" vertex="1" parent="HVg5W-mPSef3V78qNZUp-24">
          <mxGeometry y="150" width="230" height="30" as="geometry" />
        </mxCell>
        <mxCell id="6XDwwHrDYBpkL6cOkaTp-8" value="author : " style="text;strokeColor=none;fillColor=none;align=left;verticalAlign=middle;spacingLeft=4;spacingRight=4;overflow=hidden;points=[[0,0.5],[1,0.5]];portConstraint=eastwest;rotatable=0;" parent="HVg5W-mPSef3V78qNZUp-24" vertex="1">
          <mxGeometry y="180" width="230" height="30" as="geometry" />
        </mxCell>
        <mxCell id="HVg5W-mPSef3V78qNZUp-5" value="seen: " style="text;strokeColor=none;fillColor=none;align=left;verticalAlign=middle;spacingLeft=4;spacingRight=4;overflow=hidden;points=[[0,0.5],[1,0.5]];portConstraint=eastwest;rotatable=0;" vertex="1" parent="HVg5W-mPSef3V78qNZUp-24">
          <mxGeometry y="210" width="230" height="30" as="geometry" />
        </mxCell>
        <mxCell id="HVg5W-mPSef3V78qNZUp-17" value="messageId" style="text;strokeColor=none;fillColor=none;align=left;verticalAlign=middle;spacingLeft=4;spacingRight=4;overflow=hidden;points=[[0,0.5],[1,0.5]];portConstraint=eastwest;rotatable=0;" vertex="1" parent="HVg5W-mPSef3V78qNZUp-24">
          <mxGeometry y="240" width="230" height="30" as="geometry" />
        </mxCell>
        <mxCell id="HVg5W-mPSef3V78qNZUp-29" value="lastUpdated" style="text;strokeColor=none;fillColor=none;align=left;verticalAlign=middle;spacingLeft=4;spacingRight=4;overflow=hidden;points=[[0,0.5],[1,0.5]];portConstraint=eastwest;rotatable=0;" vertex="1" parent="HVg5W-mPSef3V78qNZUp-24">
          <mxGeometry y="270" width="230" height="30" as="geometry" />
        </mxCell>
        <mxCell id="HVg5W-mPSef3V78qNZUp-31" value="isDeleted" style="text;strokeColor=none;fillColor=none;align=left;verticalAlign=middle;spacingLeft=4;spacingRight=4;overflow=hidden;points=[[0,0.5],[1,0.5]];portConstraint=eastwest;rotatable=0;" vertex="1" parent="HVg5W-mPSef3V78qNZUp-24">
          <mxGeometry y="300" width="230" height="30" as="geometry" />
        </mxCell>
        <mxCell id="HVg5W-mPSef3V78qNZUp-32" value="" style="shape=image;verticalLabelPosition=bottom;labelBackgroundColor=default;verticalAlign=top;aspect=fixed;imageAspect=0;image=data:image/png,iVBORw0KGgoAAAANSUhEUgAAAmAAAAC4CAYAAABEmVC7AAAgAElEQVR4XuydBVhUWRvH/0gJiKIoitgIqBjYhYKiYq3Y6Lo26tqCi92duNZiYuun2K2oqJgYqAgqKmIQFqmA1Hzn3gkGGGKAmQX2vc+zz8rMvSd+77nn/u/7vueMyq9fvwSggwgQASJABIgAESACREBpBFRIgCmNNVVEBIgAESACRIAIEAGeAAkwGghEgAgQASJABIgAEVAyARJgSgZO1REBIkAEiAARIAJEgAQYjQEiQASIABEgAkSACCiZAAkwJQOn6ogAESACRIAIEAEiQAKMxgARIAJEgAgQASJABJRMgASYkoFTdUSACBABIkAEiAARIAFGY4AIEAEiQASIABEgAkomILcA+xgWhicvXiI5JUXJTaXqiAARIAJEgAgQASJQNAjILcDOeF5HJ8vW0NXRKRoEqBdEgAgQASJABIgAEVAyAbkF2Mmr19C/S2clN5OqIwJEgAgQASJABIhA0SFAAqzo2JJ6QgSIABEgAkSACBQSAiTAComhqJlEgAgQASJABIhA0SFAAqzo2JJ6QgSIABEgAkSACBQSAiTAComhqJlEgAgQASJABIhA0SFAAqzo2JJ6QgSIABEgAkSACBQSAkoTYHfuP8S9B4/xMTiER1PZqCJaNmvM/0cHESACRIAIEAEiQAT+SwQULsB+xsZiq9t+BLwJlMnVtGYNjBnxB3S0tQsk96Twj3j5vRgMTYygn88tVGTZ+dxUKo4IEAEiQASIABHIRwIKF2BrN27F67fvUL9ubdhYWaKSkSEvtl69fouzF6/w33EizGnC6Fx36+PTG3j0NSnd9dqo0aIlSr/xxL0wdZhaWqJBCfmrCHniiVuRZWFtXQ8G6S7/yL5TVNnyt5SuIAJEgAgQASJABAoLAYUKMC7suPfQUV58jXMYKpOJWKANGdgXrZo3yQW3ODy7dQOvUsqjtqG0wtLmvVZ464NnP8qgSYOq0JW7dGHZrzXroE/TKhmu/q7AsuVuKl1ABIgAESACRIAIFBoCChVgYnHlOH4UzEyMZULhPGHrNm+HiXF1TJ04JhfgPuLGJT/EVmqFLuYlc3z9r5/fERqZBP1y5aGrkfaypLgYhIVHQ71kAl7ceYWEalboZKal+LKT4hD17Qs+/iqOqoYZ2yW7AUmIjfmOkLB4FK9oiEo64s4kIOb7V3yOLw59PV2Ulnye427QiUSACBABIkAEiICCCChUgE2ZMR/x8b+w5e8VmTafyxGbOmsRtLSKY93yBfJ38/tznPX+jNIN2qN1RZU01wsQhOsXXyLFuANsTNTAhxPjDNFQPRS+4SlQESQhsZge6ls2Ry1eX/3EO5+HeBT2C8XUVVEsJRkJyaowUkLZv8L8cf35J9YCVagkJyFJsyIsWdizxKs7uBikDgubpjBRS8L7xzfhHa2PFq0aoDI+46G3L97HqkBVJRmJyZqo2rgtmpX4BK87/vicrAa1YkAK+3+lJuxz/bR85IdNVxABIkAEiAARIAL5QaDACLDixTXx94qF8vfp7X0cCYhFuWqVUE5NeLlGqUowNWCK6qsvzjz8hnKNrdHCIJ4PJ778oYYy1RvB2qwM1L48w+lH31G+iTWal1NB6LObuPVZDSYNm8CiLPMk8WWnwLxjS5iLypY0MD/L/hWAy14foGrSEjbG7EfOPz3GCd8E1OrSArWTQnH7xlNElW+BNlqv4BEoQO1W7HOdn6w/t/BGtSY6tjRm4dVgeHn4IrGGLRrG34ZHqBaaWjdGda7dSUzQqTExJj9duoIIEAEiQASIABFQAAGFCjBlhCB5r1ZYItTVmOdIBKh0DStY1VBD0ut7OP5WBfU7Mw8XmJC5woRMhRboWldPeCYvwCJQoRnzDmm/gceNdyhm0oaJIGG4MasE/PwruzaivK/hGcxg16wqEBeCh/d9EVLcFJ1bVAe3NjSG84J9iIVaijoqNmyN5gasb0EPceqVAPU5zxji8P65N7y/Fkc95s2r8vEuzr2NQznTRmhprAdNBQwcKpIIEAEiQASIABHIPQGFCjBxEn6DenUwduQQma3kRdqbdxjye26S8EUJ+Gpm6MfESvrj/eNruB9dTriCMeoFLtwJQUmpcGIsEzZnWXivkW1TVJT6d02+IGWVrcbnsP3QNYBmUiSi4gTQrWCKZuaVoSdyWSWFPcV5n1AIKljArmEFvnVvHlzG45+6qKiRhO8xcRCUqIB6jLNxSe4iFkp96oMnoT+QrFEODZo3hglzrNFBBIgAESACRIAIFAwCChVgXBfFXjBOhHHbUBhVrCDZhuLcpav8/mDqLDy2ZN50lCop7zpFoVcrwqAputdPv0tXuhWMgd5wf5UIM+vWqC/Kp+dFTFwldGxbB/FPr8MrvAzatKsPQ67hSR9w/ao/4mQm9+df2Z3Nv+HahQD8MjBFnWrlYaivk9Zj9TMQV+8EIkVHE5ExxUW5YMCLuxfhm1AO9WtWg1E5/QwLCfguRH/E3Ud+CNOSLVALxhCkVhABIkAEiAAR+O8RULgA45Lst+zcx+/3lf4QCFi+lroaElmOUnmDcvxeYHKJMN6r9RHa5h1hVSV9grlwdeQv0QrGUE5gfS8Ny/YNUJFvSDQe37yDDyXqo2ejiiwaeRPXWd5UQy6kl/IZ9+89xYefqqgoIwEfyM+yP/Ht/GkkDo0mIPz9Z8QbVUZF1o57d57iW2kLdDaPx62rL5ggbM5We+oJPWCxRkzUmvMbxP6KfI9PCUYw1vuFGOiIBNlPPPHywtvisrfR+O8Nd+oxESACRIAIEIGCQUDhAkzcTS4cedf7UYafIjKvbQYXFob8/PUbypcrCye2FUWORZgMr5YEa5rVkcnwu3MF/sVSPUHpV0gi4iUuegcxWVYMqqraqF6VpbW/iUUNWQn4+Vx26PObuP0xnl95CbYCUqBRBuYNqyLqiQ+CNcVJ9sD35164Glocjdo1Rc0IP5x7/BFxKuosuZ6tgBRowMCkEZoLXuBsQCRUmFexWApLvlfVQ92WzVnSfsEYcNQKIkAEiAARIAJEAFCaAMsKdlR0TO5FWH5aMeEnIuIA7VLpwoD5UUc2Zf/6GYVYtpl/MQ0dlNLK4XpFvkz+IujqaqWucuT2E/uZgJT0n+dHP6gMIkAEiAARIAJEIM8ECoQA43oRFRUNl03beE/YoP690KZV8zx3jgogAkSACBABIkAEiEBBJFBgBBgvwpgnzPuRDzq2a1sQWVGbiAARIAJEgAgQASKQLwQKlADLlx5RIUSACBABIkAEiAARKOAESIAVcANR84gAESACRIAIEIGiR4AEWNGzKfWICBABIkAEiAARKOAESIAVcANR84gAESACRIAIEIGiR4AEWNGzKfWICBABIkAEiAARKOAE5BZgZzyvo5Nla+jq0M6eBdy21DwiQASIABEgAkSggBKQW4B9DAvDkxcvkZySUkC7RM0iAkSACBABIkAEiEDBJiC3ACvY3aHWEQEiQASIABEgAkSg4BMgAVbwbUQtJAJEgAgQASJABIoYARJgRcyg1B0iQASIABEgAkSg4BMgAVbwbUQtJAJEgAgQASJABIoYARJgRcyg1B0iQASIABEgAkSg4BMgAVbwbUQtJAJEgAgQASJABIoYARJgRcyg1B0iQASIABEgAkSg4BMgAVbwbUQtJAJEgAgQASJABIoYARJgRcyg1B0iQASIABEgAkSg4BMgAVbwbUQtJAJEgAgQASJABIoYARJgRcyg1B0iQASIABEgAkSg4BMgAVbwbUQtJAJEgAgQASJABIoYARJgRcyg1B0iQASIABEgAkSg4BMgAVbwbUQtJAJEgAgQASJABIoYARJgRcyg1B0iQASIABEgAkSg4BNQ+fztm6DgN5NaSASIABEgAkSACBCBokOAPGBFx5bUEyJABIgAESACRKCQECABVkgMRc0kAkSACBABIkAEig4BEmBFx5bUEyJABIgAESACRKCQECABVkgMRc0kAkSACBABIkAEig4BEmBFx5bUEyJABIgAESACRKCQECABVkgMRc0kAkSACBABIkAEig4BEmBFx5bUEyJABIgAESACRKCQECABVkgMRc0kAkSACBABIkAEig4BEmBFx5bUEyJABIgAESACRKCQECABVkgMRc0kAkSACBABIkAEig4BEmBFx5bUEyJABIgAESACRKCQECABVkgMRc0kAkSACBABIkAEig6BQivAImNioKerW3QsQT0hAnkkQPdEHgHm4+Vki3yESUXliACNuRxhKlAnkQArUOagxhCB3BOgCTj37PL7SrJFfhOl8rIjQGMuO0IF73sSYAXPJtQiIpArAjQB5wqbQi4iWygEKxWaBQEac4VveJAAK3w2oxYTAZkEaAIuOAODbFFwbPFfaQmNucJnaRJghc9m1GIiQAKsgI8BehgWcAMVwebRmCt8RiUBVvhsRi0mAiTACvgYoIdhATdQEWwejbnCZ1QSYIXPZtRiIkACrICPgSLxMEwIhe/jEGjXtoBxKdVMiCcjMvAJ/OMM0cS8IjQUYZfYT/B59gFxWpVh0aAytBVRRxEos0iMORl2iP30BE8+xUKrkgUaVipa1icBlsbgH7F3xDBseS1A9ZE7cGBYDcm3NxZ3wCyPGvhz3zYMrloE7lbqQpEjoKgJOCHsDg7uuoi7Qd8Qk6yJ0qX0Ua2dHcZ3r0cPw0xGkUJs8XQfJuz1l9RYvGxlGNeshU6drLIQSLkf5r57pmL59TioNB+OA382lV1QpAcWOp7AK5RD36UL0bti7uvL9MqQU5g2+xKCK3XCqsU9YaSAKopCkQoZczyYBITePYLtZ54gMDQWyVq6KFXeEB37joadueIFUfCpBXA++QWVe83Cyh6VioKpJH0gAZbGnEHY1LUTVvgJoKJpg7+9t6CPnvCEy061MPK4GWZcO4XxqbqsSA0G6oziCHTs/BtUVFRw+cJphVWikAn4O3vATmcP2ORi0NLThVYx1vyUeESXsMJy0cNQPEG2nPAPJjbOWfdyc03OSs541t5jx/E1PDzLyysbGqJ/9265rSLDdQqxxaMt+H3TM0BDG2VKqEMQF4OIuBSo6NbD5GVj0axE7psvyx6xb85i8wF/VO49FgPqcXsuPsSG4W64n0YIfYf3zi04/as1Ro+xRpXMHGW5bxpQCAVYkRlzzG7fPFbB8WAQklW5l6/iUGGfcWOvROcZeRdEYttmIfL/DQGmLPuRAMtEgHEfGw7Yhmsr24GbejIKsCT8+BaOjwGP8DaiOIwsmqGukQ7U+fJ+IfJzFH4VL4XypYDIFz64FQiYWTWBSQk1/Ip6D/+H/vhephHaNCwPTak2JP4IwfP7TxGsVQOWjc2gJ/1lXiYxuvZfI+CybgNc/t7I1+80ZSKcHCcppC2KeOiHnV0Mp2OhUGkyGHvHt4Tk+ZqczCZkVfZ3Mu5umoSNjwRoPHQJRlioorhuKWixExN+hCM89B0Cv/+CrmE9mFXVFYWoZF+jkRCF6F/JKKZZCqW4ApLjEBUThxR2V+kw8ceHt9hnXwP98fo7oF/dFNXLi8vMHGlOJtNyZcpgSJ/e+WYXRdgCIgGW6pGKYewXMPZxqNZnHpZ1ryBi9hkfXoYgRlMfJrVqohzHUsSO4wmeLxAXFYUEDeG/Zdkwgz0+nsDUeR4IM2yL2dM6wVCtBEoz0fcj8gcSpW3EV5aAH+9f4VloTDrbc03k7AzhOEmOQdBrX4SgMhrWqsyPmwyHDAHGja2fSexMFS2UZB3gxmHct7fwf/MNGpKxxtrAty11TPItE10rGWf5ZvXUgorMmMNnnJq/CIc/CNDsz42Y0jzVQMlsDlBlc4D4SI77ijcvX+M70o07bixwduDHi4aQP4T/Tr7/DwZveQ4Vi37YNLRB6r0vZZOMAkxsV6SenyAaRwmpdQvHWTIgqlf6Hkgzp8iwv7LsRwIsDXyhB2ylXzXUqBGEwMBqmHj6PKY1UMsgwG7MaoRBB2KkrtZA5dE7cHN2SzYVXcOUqmNwrHwt1FcLxNPgBP48FY2aaNEsCc9uBbEBKDwMh+/FnQXcNUkI2DYUvy31lnynUqIJ5p7Yh9GmagqYIqhIZRDw8/OHbVe7NFVdOn8K5uZ18r16RTz0I9nb7zj29qtSth7GTh0JywrSWT7BODZnGY4FC6T6IgxFtXq6DM5HPrHHYuqhWacPVjvXwo1Mrmn+IF2oQfzgVWEeHjfm4fnxEP/M3Y1bkSmSQnMSlvjy/Tv2HT/BXzO4dy8Y6Ovz/87s8/wwjCJskVGAAeKHk1orB+wdpYotY7bipnC6ER6qurB1XIah5uxBKeIZ1rgD7MJv4ti7BFTuORLNHrjJtGEaexidFXrfpA6hEFQResXENuK+//EMOxazl9cvqXZSM2iGqXOHoQETbMI2f0NV8xqIevkGkaJBola1C5Yv+C1jiDGdAKvw8RTmLLyE96iAPvNno0/FEJxauhaHWX/Eh2aNLlg4ywbvN02H65NkWIxcg2mWXLhMPGZLwW7+MthXyw9rZyyjyIw5RODisjnYy9JyyjUbhBkjW8MwQ6JfMj54/I1lB98iWoJCG3V/n4TpHasw+SvynBq1Qu8qz3HybjRS2NhZZXiODy1KH7Lu57QCzBAfTi3D7JPspbBqJyyZ2xOln2zHdFcfyTjixnybsXMwVv8iJi/0xLcybbBg7UCYsIqS2UvMMDaOVRoOxJZJbTJNoVCW/UiApTG/UICt8u+JdW4aWDb8MKIaTcelEw54my4E6euxHzHMFW9chhUQ54mZHefgiko/7ApYBhuxAFOpg6GbFsGhaXFcmNgDS++nQL/TbOye3RWlfVbgtylnEF13Kq6d+xPGfptg1XU9gi1nw8NtGCq+3Qy7Ln/jbV9X+K/tIPKsKWayoFIVR4ALPb548ZL57EUihYUh69SprZBQpEIe+kz0bJjlhnuidw0N/Wqw7t4bPdvUhJ5qLD4+vY5je87COwIw6fgHbGtooXL9htB9dxN+GiaoU45z4Ybg9NJ/cOlbBdiv+AuNwmRfU8wjawFWReSNM+k9DVPalGSO5q8ITayMOjlIzL37+DHuPHqMcvrM09Vb6OkSv+W2atwILRs1ytdBoBBbiD1gIm8BCw7h0pr1OM0EcK1BSzGvQwS8L/2EQXMjMMc7fj3aC+f9AVDhxRnrn0jIfGKziW616rCoWAI69TqgnZa/TBumsYdlLO5cPIZNHh+hUrouBva3QJkypmhlGpROgMXCa71Q9JSy6IvpQ2vg7Z7N2PnkJ3TYQ3c9yyWLEOX06Ji0wZhBtqgUcwEua2/jExNU9ivmwa58OlNIC7DplXCMH4/aaDlhPgt56yLQfTbmnI9CrX6zMKNrWQQfZQ/oc9/Y9+sxTmMPxrg8RFx9e2x3tIK2KGctQAn5ZEVizDFTxLBx58xEi1BcqaOsaRPY2feAdY1SQo94kDsvdL6qVkDXKaPQATew/u+beJ8szgsUCrB7YGkMBlVQr2YZqFRqhVH1EnDt5BEcfBQJlRqtMb5jdZmJ9tICbA57EeDaEiMOuxe7hTWTDsKndBNMnTMUDXCfzVf78bAMly/YBk8Wz8OBwJLoNns5BtUEhHmNv/ixMbFx1vFyZdiPBFgmAmxH0CzEOLTBZI8U2P59C/ZeLTPmgP2KwudI5ktX/YL/DemNtUy47QhahU4iAXZcpZfob+DtP71gtfI56s+4hPNjWRJZ4HZ0brcKL0QCTG1bf7Re6oOmo1wwsiHn8fLD7nFb8UAs0PL18UCFKYOAOPQoYOKLy//iDvG/FRGKVMhDn3trjPLHxQNHcfxxGOIk3grh22cV1VQvWIYcMKkQot+hGfjHu6woUVv2NRlCDek8YHVvb8SYHS8AvcqwseuNHq3MUEaOZXfSgouzBS/I8jn0KB5XCrGFOAcs3eAVent+k+RfSUJs329g6RIPBIvzazLNpcqhPcQCMI14EXk3JB4wH/zjsB23k6ti8Lrp6Mzl0H4+i5kzzuODmgWmbh+N8hmSqsUP6EwS+cXtrmCO5hovcY+Fw6r1nIbFdpx3RRgiO/LBEB0c2sOMe6YG3uCFotCbkoj/Oa/GmUjmRd0yFqbXhB7dmvaLsKhzWYVPA4V+zPGE2ErXFx7Yc+gSHn78JfJqF5PY4KvoxUjHeiy2D63HX/F420SsuZssCo1/yuglFZEX3/NZLfQQn2PYuB40nvimej4rM2Mz79fg9T7QbdgFfzTjPNuR8D5yFg84ezOvuXjOqMiPhUjsGP8PPFUaY9r6kWiQg3xFRduPBFimAowJqUA3/Ga7HE/L9EP/esdw+EotURI+Cxfun4DBC69CFF3kSykmEVzCEKQ8AgwigZZ+RlBtvRDeB39H+pdChc8cVEGeCEiHHmUJMK7w/A5FKuShL02BCaqP3vvhstMHn1lSfpvJmzDWQvbDO8Z3PxZuuoMQ6XCYZKVcDh/46UOQiMGLU25wPf8K37hyNcrCdoIzhvIJ4tkf0mEF8dnSIcnsS8j5GQqxhVgAibwFXGs09c1Qz0RflB/3ERfXbcYBv+g0oV/Jw00pAiy9IONamfYzo1wKsE+qxaCanIIUzdoYu2YiLPlFB7LC4EI7Cb2CpSUespYTlqPejRnY7lslVRzm3KS5OrPQj7l0vU6O+4S7+7Zi693vSMlUUKeGxoUiOCxfBJgqs38ys3/xhoOwflJrPjdbHJZPbxwVnWaYsWkY6sWKPGSGzCM2NB7Ll97ELymhmJ1RFW0/EmBpLJAaghR6spLwdFV3dNv8lj9LhYUU+VWQ5U5hRN2/cKXKMBy5MhstNNNfJ78AE3vAWi66AfehiljLnd1Qo+/zk4Ak9JhFofkdilTIQz9D+2NwdfUM7PQXMDc+t+pRlph6g/1OLrgQaYyh66agE9tDytt1PFtVnDcPWDNxW3ghuAertz3Dd5Y3tJblDbH08xwd4rACd7IiQo/iRijEFhmS8NN2Odbrbzi4BUC//XisHWwOjfQrzJQiwJ7zXoZrsVLeLHG9oodimVwKsOBKHTChiR/+kcr/qaIq9oAZ4fc1s9BNmN6X9vh+EXP/Oo3QNs1Q/443HtbPOv8nRwNJjpMK9ZiT1c8fnlg20R1+Iq+nqShPVI15WnexEDO3IMLbdQq735NFIvhtvgiwyj0Go9mTgzgm7QEVecCKtx2DLcMbpC4SkrQ7GU/dpmGVlwHaWcfh2vUEuXP/FGk/EmBZCjD2ZeJ9zGs9GG6fuTCSSIDp/A/2zebiTpnuWH9iJhoFH8X08etwN1IccpRfgBmHsjLbsjLVa2HQ9HGw5L3j3/EquiGmDjSX43anUwsCgZwIsBbNm+HokQP51lxFPPSTn+zGPM8k1KxhDDPmhg19fgcet4MRo8pCTCtZiEk/FtddnLHNV4BSta3Rr1l5lLPQx/3Zwodwj5mTYav5Evs27ce9b+KHsqxrrFDmhjAHTK1KcwzrUgUR3tdw0oe9aYsm+ir3juF2vCGqGVWHfsxF/LPxAYLlFGAcbC6swB35ueoxvREVYQtZSfjS9YoXTOg0HoDFf5jgi+c+bDgdhLhsQ5BZ20OSGP3mf5jAPAjhqmVg2a8rqpUtj66NI9I9XJNZns0MlmfzUzge2pbDl5vncfoF+5t5HjaxEFVYrgUYl9djg2DXRezhzsrjErnZA/+XaJsENcPG6NejNvidg6I+4adpf7C0Inak5qWxOAUaO6zC1NaK379K2jaFdswxMfV49wpcYbmWxiY1YYgveHbjFm4GxULNtCdcZnZCWfFWNRCOCwuWPuPu7sPOFM8RsryiQjrilwbo1kCP3o1RoZwFrM1Lp7md0qQmtGfeNOkcQIv32OHIzTW6qGfbGVaVuZzTXwj9VhI23RsLx4I4R439U6WcNRav6g95d5JSlP1IgGUnwNj3EcfHobGjBxLFAqzGD1xlORejDnxiC2xZGKBSe7Qq5YkbecgBM+bqubUC9qN3wl+8RJIFFsoMc8WzhW3z7SFNBRVdAgp56D/djZEbvSW5Xxw9Va3y6DDWSRL6S35zDNNXXxWFG4WJ1E0es0RotgqSj0CyUGG9qonwfa0h2axT1jV2yefZ6razCOQvUkdFyxao5Oclyeeo4rESMw6+F5bJl2sE+zkzYMflghSwQyG2yMYDhlgfbJm9Ezf5VaLFoGdeDSX8AnOQA8ayfGTZ8F76DTC/4+aG1djuIwxxCldepmT0biSnD4UWQ2nzHpju2InPU8u4rUAOc8DEuWfJzMM6wwXnv7E8pB5TsaBXWbzYvwbrrn5NHRtszyqbieswsoFwYMSK8gdTdHKe/1PAhlS2zVHImGO1+ux2gsuNeKmwdjFoV26OidMG86tauSNDykGa9IDMBRiSX+PI3E04GZrIlyPZTkWqt+nHSzJ7EXBiLwJc0n9vdv/3Ur2BVS6n4Cu1OlrTxA7LZ9mKPOPv+DzA09+gtNy/bI0lOoEEWE5JyTjvV9QXRMZrQo9t9pV/23WJ9hBj9WnqGdA+YHmwz3/tUkVNwPyeTvx+SuyQ7LuUkW5CXBwTZ9yeTMIjzX5PmWik9NeA7ecTEct2ldIuA7ZNUMZD1t5gBdDQirNFdp1Nu+dSdmen/z6DPWQVwGwQl6wFrWwWQIj3YVLkfltpmicaO5x4l+wbJx6Lrw5g8orbcuX/yMvu3z5foWNOwlZq760MHRbPExn5Z8smgY0pVTamcv0uxfaBY/vaxbPF5hnHmzBtws1febl/2faXBFhOEdF5RKBwEFDoBFw4EBSYVpItCogp3l2B65UABPs+R2CMntz5PwWkFzlqBo259Jgi8IilG3i/e4c7fuHZ7v2VI8j5fBJ5wPIZKBVHBP4tAjQB/1vkM9ZLtiggthAlaSezzTnr24+HM78xaNE8aMylt2vqLv6ahi0xZVZqyLSgjAASYAXFEtQOIpBHAjQB5xFgPl5OtshHmFRUjgjQmMsRpgJ1EgmwAmUOagwRyD0BmoBzzy6/ryRb5DdRKhygYrQAACAASURBVC87AjTmsiNU8L4nAVbwbEItIgK5IkATcK6wKeQisoVCsFKhWRCgMVf4hgcJsMJnM2oxEZBJgCbggjMwyBYFxxb/lZbQmCt8li60AqzwoaYWEwEiQASIABEgAkRASIAEGI0EIkAEiAARIAJEgAgomQAJMCUDp+qIABEgAkSACBABIkACjMYAESACRIAIEAEiQASUTIAEmJKBU3VEgAgQASJABIgAESABRmOACBABIkAEiAARIAJKJkACTMnAqToiQASIABEgAkSACJAAozFABIgAESACRIAIEAElEyABpmTgVB0RIAJEgAgQASJABEiA0RggAkSACBABIkAEiICSCZAAUzJwqo4IEAEiQASIABEgAiTAaAwQASJABIgAESACREDJBFQ+f/smUHKdVB0RIAJEgAgQASJABP7TBFQE7PhPE6DOEwEiQASIABEgAkRAyQRIgCkZOFVHBIgAESACRIAIEAESYDQGiAARIAJEgAgQASKgZAIkwJQMnKojAkSACBABIkAEiAAJMBoDRIAIEAEiQASIABFQMgESYEoGTtURASJABIgAESACRIAEGI0BIkAEiAARIAJEgAgomQAJMCUDp+qIABEgAkSACBABIkACjMYAESACRIAIEAEiQASUTIAEmJKBU3VEgAgQASJABIgAESABRmOACBABIkAEiAARIAJKJkACTMnAqToiQASIABEgAkSACORJgCUkJiIoOBjBn78gMjqap6lXsiSMyhugmpERNNTViTARIAJFhMDz0Ce4/Oo07gTdhH/Yc75XdSrURatqbdHJrAfqGloUkZ5SN4gAESACiieQawH25ft3ePs+h07x4kxwlWfCS5dvbWR0DBNkn/EzPh7N6tWFgb6+4ntBNRABIqBQAtvv/o11N1Yg6tcPmfWU0iwBJ+uZcGgxWaHtoMKJABEgAkWFQK4EGCe+bj/2gXnNmjCtXk0mi4B3QfB78watGzUkEVZQR0v0a1y7HgIjayuYlVRCI0N8cOqhAE16NIKREqqjKvKHwIj/9calV5f5wvo36I9+DYYwz1cD/m//sKdwf7oXR54e4f+2NbOF24Bj+VMxlaJwAp8urMW6J3UwZWYXVFZ4bbmp4CfubluCC2UdsKi3cW4KoGsKIAFBwlPsnuWOlAEzMbKJTgFsIRB4ahk2B1tj/rhWUNTjUW4BxoUdL9++A9OqVTMVX2KanAgLeP8enVq3KhzhyIhH2D53Gbbde4OoxJLQq1ILfcYvxPTOFVmX3mPX4MHYYrwI9xdYi7oYgRsLHOD8sCbmbVmB7pVUZAwk4XX/vBYIv9OugsaNGsF23Hj0qlGc/+jd7pGw31oVK+/OQztRCeE3l2DwtIcwm7sZLt1kyxXPafUw0KMfTvrMQ4tcDGHBmy3o0PY07G6ew6Sastqei0KzuERw8S8YjkjBrhAXdMnfoqk0BRHgPF8LLs9BSU0d7LQ/jFbVxWM/bYV33l3HyMP2iP71Ews6LcGollOybNHzc9YY7V8cDgMuYETl3I+9oMvt0P6+FpaOO4eB+rkvR0H48rHYRHw4uxJOLpfwMjQa6qUqoGbbwZg15w80ZE8HwfXFaD4zEOMOumFYdSGHhJcHMHrcTiT0/Rs7xtWHdrrWCKJPY2S9edDZ5oWNtlwEIwLeOxdh4fZ7eB2ViFKlqsC8z59Y6txJrhcmwbtd6GG9DCVWeOHQwAp5ZpBwcy7qDwnFIp/t6F+6KNs4z6jyvQBuXDWbIXz54g6D2q3R2LIXJgxuDgMNNu4ENzGv5Wy8G7sX+4dW588RJARgz5+TsD3BDpu3jYVF+oHHznm22ga2Hr1x8/J4mCDrsZ3TTnFtcTYZDI/BR/B0fvOcXpbpeYLgPbBruhstzl3GrIaKSaeSW4BxoooLMbZrkbMOet67z4coM/OU5ZlSPhUgQCBcu3XG8p89Md+pJ2qVCcf3jx/g9aMJ1oxqBu77DR3bY2WdrQhZb8tqTcTLjf3RcW0KnC8exaRasg0kvm6/6VzMsS3ProtF0LntWH06EkOP3sHS1up4vbE72iw3lQiThJeu6GHrgmLOZ3ByQi2wcS7zCL7oApeAppg9qQ3K5IIDCbBcQPsPXcLlfPXf05kPO7oPOZup+BIj4URYv73dwYUjjwy9mGlOmEDgAxeXDtgU+wvV6t+Ep12jHFEVCM7AcdEimI7wxjiRaIsJ2AqXp8UxoOdQmClmjsxR2xR9UvSVGWg9+CrqOjljeMtKQHg4Prz0hUG/GejBBBf3clNhhD9mi16mBBEemNhuFLystsKTzVey5gd+3jlgiQv3ZqAh68Br115ovyIGfeZPQV/TMvge/glBt2LQfNVI/gVPIGBlGq2DaXYvbNHMu7H2FLQGzoR9JvOiPLwE8MMqy2440/MMbv1VT55L6dw8EhCOq/cYv2UoeJ/3tyfYvmE7fE2W4Lb7YBhxY6KiA17NvgqPCTXZCRG4MKkzhnu1xq5ra9FFhmAWJLBrTBzwY60vdvctiWzHtujZ++avQPaiUCyLHoXiwqoNCGgxDZPbls5jz7nLY3DcoQkcVVbCd3tPhXjB5BZg8goqeQVbPlDLVRG8GGmzHHV2v5Np5LQCrD1e7hmF/vMjMMB9N2Y1zdzY4uvO2l0RDVCueSHY3rM15lfchKB/uuG9lACzYW+tQwYsQLT9Qeyf2TRXwgrxkQh964+3qIMm5noQ+tmER0LMN7x+GgCY1YdJ1H50yeABi0dE6Dv4vQWM61aHoZ701fKjjY9kZT2PROm6tVH93pyMHjBJW2vA3LgCSuetOvkbSFdkSmDt9YVwubGaDzuu6+km87zIuAgsuvQX5tmugZ5WaTieHMGHI52snDHVer7MawTPHdHgRATmt4vDtLvGOOa8DOnT9xNjP+N7XBKgXgYVSmrx5Qi+b8OATdthJSXA5Dbfr3CEhTxl94YpzCsaQU9T7hL+lQsuTKqBES+nijwGGZsgLcAm6t/G7J4jcM50Gc5s7osqMt7gxPPSgfYn4D2zoYwXTBl1hB1An0YHYJ2JAOPmlu/JJbKYMxIR8/UTAl5FwqBBXVTWlVbMbN4JfIHAOEPUkDEP+Cxriy6nu0rE4r9ihP9gpbKiFrxHcoA3xly7iClmV6QEmD5uzO6PP84bY+2pjehfRfYbUQITdcYjIrH2JfNollRhgi2bsS24i9nmAxCzTvazGeCeWT+gpl8Wupl5K7J7JgZ8hFYVE1QqVyKNwyPafTRMJqdgo6it+T0E5BZgJzyuyJXXJc4X69WxQ363PV/LE3CTS8NZiPnrHM5MrZtGtPCTv5QH7HkXD1gNvwHr3ZeZWMtaacsWYBAOusDpuHN2DJLEAsyvC85l89Yq3WnuDbbtmS78pFyTDyceRtU/auDJmadQLcVeVt5/hWr39fBm6p17Aw6/OAMdxhxChF4VlFWPRpSKDooF62Gc5K35Fub3HQO3kJIwZNdHhUah9rzTODWyEnzXDUTXvdWxjX+rSYLPss7ocr07PE47op5M0cQ8hK6D0GWRD9SNKqBUYjSSNTQQEtxG4unjwqx9RuxBsB77HtEIizLBvAvucNDaC7sm61D7yAOsbCO8iYX2WQ0Tqc/ydQBQYRkI9Nltg3vv70u8X5zY4g5OaHEH93f/PR3h9/mlRKSJvWAtqjbHsWFXZVBNgNehmpiAnXjYIxwTXBxR1i4IS+uLZ85wXDrUFpMCggDNStBOCoZ152iM/9wSVg+FKy/FR/9uMXDBSFQ+l4Kd87dBm5X7e7gz7o2fKAmZ3T5cBQO+CT/TfuYM+9M7EKJRnr3NsvGWYII5Q6/nKQSqrGFza3Yj9D3ZGq6eLuhlkPHBJhZgs66tA6b+hrUqk3H5+HjUyuSBJJ7vDHa8xpZu3ElfmDeiOWZET5J5T3NzTetlvmm6a89eVicF9ECbMy0xs+4FrD70ESn9tyH472L8Q1lF9DLLzXWjQ/vCPvwyTkfpQudnGEJiq2PqyXOYxkI7XMjKtV8vLHiiBiNDbcRGGcG00kPES720CpgHsMqQF5h1+yTGikKsymL/X65HlgATOivWov7+V3Bpf1UkwC5ho2BmthEhjiU3lvvdGwrPq5NRS/R3ZmObq7/8cPc0JmjAvG2Xx79j9Y5D4jRHhGxeCe9Yc8y6uREYawOxs0MY4ZHjmcjmhORq1aD6wBiLRGkygnc70KXVStRmfV1nk5X3LXejhASYhJtYMNyHSjVL9P59GEYNs4aZ6C1NLKSWxrKFB5+i0HBb9uKLFw4i4SbtAUv4chYTrcfDb8RZ3qXOTW6Wy37AxDQEMRYbMw0ZpDdxBgHGPHgl517DoXHGvID8tNMeTeYa8YKnc8ItTLcYhDsDj+LK3Kb89/F3F8Oyz10M4QVYEm7MaI4hn6fhwdYBfHw/nKl/C2c97AxahQ5sktzQqzvcarnCc9QL9OvsAbusQq9c/LzJEpRedxvbBxiwt4pEfNk3BvWn60m1Zzg+zxN/H4Ejw1rAWf8fvF9bm/cQrqu9B0+Wt+XfSLi+NN3dDJe8pqJ+7sY6XSUngdoryvM5XX7TPvJXcmKLO44M9ZD8zYmvOuXN4D70Ci/MOFFmvqoyH4b0nxGWoUZBIgsjrhgDHV50xeGkW03M1zqIhwM7gpMVwVdt0ebOD0wZdAWTanCerwQkJmqA29FG8HEVuri5o4eUB0zwcIRIgO1G+2cT0eiELxzHemKEAQvLJV7B7NX9EW79Dq5NH/D//tLaH65WFVhd4Ti2wwzTtfbgzaCucpJR/ulcSNGx03gc/KKFhjZDMGT87+jT2FDyoih8UF2Bqak6PugOy1J88fOSz2o07XYFg5gXw7GWOGdsO/p0X4L7qAarXvZwGDUE7UxTPQKyUhbEc1f/La6YZcW1pzj0SnllEGDDvftjz+nFsGXiUSCai3zGCcNWXD5Qp911sP3WBvzGQlaCeG/MteqP+4NTowbSD31FPAiVb9HCUWNGARYP3zV90WFTJbg+c0UvXaEHzMPUBJrvdeCQxTNB2OMYNs/XxxRtYfSHm9uzHduiMKdY0PPjV/TZVcup2Lbyd9QtowY17XC4dWufVoBl9UzkcyAn4qPjJZybwqX6pH1GcXnK4noC51/H+T+FOW75ecgtwIpqCFIMNZ7lvRzbugYb9nvhXaIROi3eBbchZmzCFuaACQXYe5TMkJ/Fude/4weLmoiP4qUrQK+48LrVnwyZV0kNSIpGaHAkNJs74ejeyXwCrbQA+6Cb8c2Vd+1LF6ylx7v5ZQkw6RCq9M3TWcaEKz2hTjS+x7t5XztdwYZuwi1F8H4fBvT2RB+Rh0yYm+aG4NKRqOwgzk+T3W/VM6NhOlkT24M24jfRW3ia9txaiNr9A+B0Yy1+KyGsLmj3cPT27M579MqfGIe6c0pjn89SWGkIQ7Z7LE9TDkh+3v3ZlJVegPXb0wH+n1/BvDz33gre8yUtvrjPxAKMS9p/MeNzhhpi7tjD4npZ7HbeDM65yf3d4GoKXJzc0VMnFPtca2G2lhveDuvDCzLpIzsB1onPLbPC3frPcbRjFSRyguxUGBazsu3eOaL+MT9MGbEL3URJwe9v2qHvh77wnDwDXPZKgT8SfuDV9X1Yv24rTj+JgKa5A9zc58CKEy1SAuxNNPMyZ5J/I+5j+pwxSd/jQ/HoxE4s33AIN4MSUKXjPOzfMZj3pGUmwKTzV7lyxA8taQ+YdPg07UtpSd7zNstoiyi3VvZLa3YpIgXedoW0gcJxdR4GVfXBvQ7FffuAL+y52Gv9UWztWVFia06AaQREZRsVyphLLQKT1djOQoCl5p5lHDeyxkzGZ9B9SQSIH7vpFoqJx7J0PflpSrkFGJ/T9eUL2jVvlqN2yCvYclSoMk5K+Iozf3WHw9EaWPn4IIZWeCdJwheHIJttPA7XvpWFKl4s0J6LVjuyzzgX/QbbIP66kzb/w8Gh1YQtVysBfalYsyQJXxyCbLomTe5Geve/GnPzcwsB5BJg6ZJ0+cEmtQpyorHwTeacAQtPClNu+ENFpR2W3liEjryIisCBPxrB6VoTLH1wBA5GbOLPpN98aEJqYUH6wd053Y0trq+YzQJ4LbWBOv+WPBxx6/ywoe4hthrlLHqI6lSG+akOQFYIUizCOD7pxRf3WdYhyCjmdaqKSeFNYF/JGOx1BEgOxM3Ah7DoGATXVmH4Z30zrCyzFx8G22UwQXYCjFsaE+zRHi38OzFR5YRQcaiTedfUmKes0rkzMNAWPkgk462KCzztu2YQewXd/vHPN6JntzWM00H4L2ktScJPDUGOxNF909Ask1WDwpDeMzhnmlDPvAFnZ8JmlDvMVt7H0SEVFCLALk8olm5xEwmwgjT2hIIkFi6PUlfoc44Fca5uqkBJDUGOzTIv+j3+6WaFJTXFi9ky9jbD2FaUAJP1TCzoAozfhuLWbZiyWGl2Kxv5bSiCgtDJsnXh2IYi3VgQvNwE6/bneQ/QxJqpAixkfXt8cJ+MbpMe5Fjxp03CT1uR9CpImw/H8WcPRzyy2pZtKFIuAcZ5wLqeQu/zXmxJrTDkkFaAPcOyFnbwGX+Pn2xlHeFscFrP/IH2De7jxE8nfhUMW48l85CVvJjeI9es22OMZ+J2WAXZS8u5XIFBP5bjRn03WN0bqLCVKAVpwitIbZGVhM95uDgRxh3isKN0m7NKwhd82Yy+rkuh13g9epVNtbmfz5/YhCV4OHYgbjGBNgUb4e8wGCI/rKT4nAgwcaJ+22HLEXxgCsra+8LJmL0oBMxBq0PsbXfCZQwuEttVJOLMWDOM0XDlX8bSeLT0H2PpHwOxNYs8sJyE9AQIwLr2nXChtzAUqBgPWFW+H6PD5uDBCSaSuXlJRtqGrJBpQbpXimpbsts6KK2HSB/ey4ajzzZBljsDSOc/yw7qpRvbihJg3PO93Q60kM41Ti/Aoo9jqJkjtCW5kvlrabk9YFz1ko1YTVg4jgkxWUeh24iVbUr65KMuqopX4MS/w4EJ9ph6tyMOszBYW41MtqFYE4Mh+9yxNJNlr5kl4Uszy2wbitjBO3FySdtMV0LKJcAS2EqSZgNxzmoDLqzsgYrFWDjjsBPspn8SuWCTWHKkJfre7IgDx+bDRpToGx8ailhDQ5SOuIA/W8+EympP5qnwxFCL6fg28wKLi8sO3giCWdJ8qwWId3TH4XEW0E0JhdcqB/TbYibKARO252bXXTi+oB2fc8atZgkJjUNFQ2GSt8D3b1j+5gldkxcw+es5W/CQ2RKX/L0pqDQhAW4bin57bPk8MOltKNIn44t5ib1fXPjRfeilDNtQcN6p5g9q45Ao/Ci+LpF5p8zOBWIOy92y9e3M54CN7n0MU81ZrhZbvBGZyPKKtDUgCFkHu+2rUbvHW6xsqMrnhqk9Tc0B4zxgbOkIn1fm+tMMb1K645IovChI9MT8tT3gVc0dR/p0Rjk+vhmH0K+xMCxX8H+tI9jPB78MxKu0mHfq7jq2Wnozis+/jZMjKmW+DYX5YhzeJQwhSh8C0cqygBlC7xaXm/Pq6SeUrCpe+RyPt4ec0NPpDrqKHlDChORNqHPgHku+VkVCgjreb027hQ5/36Z7YKZf5ZZ+TpRsQzB1GeYMqoRPRzdj8Zoz0HIWb20AcC90ps4lsCuA7SFI04DSpij5BFjqNhTDvMyw6tBODJWxDUnYnkGwWFUTR/0WwpL1JNuxLfCEY7VhCJp1A0fGML2RkMhyQq+n2/4iFyFIqa2nVqwdi5Z4gN0L12DbQ0vJQjGh8PcU5Unn/x50uRJgnPX5nyJ65gsdbW3+tx/1dLm9YgWIjOF+iugLfsbGoln9eoVmF3xB2FEMbzcT5yMTJINbs7INnDevxSS2zYTs2DVLSORWB65PgdPZw3Csm3E5YG4EGC9F+BDDBhRzPIHjUzKuyuTOkUeAcQmFCWwprX2vVbjN9VFDDxb2NtDa/xI24lWQ3AZ6I4djzpVPUDcox4z8FcWqT8CBOw74wCXIqyyFz66+whWVbEJs4Pw5yzed8Iuz0GXCAbz7yS7QqYauPUzg97+SkhUm3EaRwwcvhMcnNRgYsOq+sK0vHHfh7jTxHnPC3K+5r3/nRbAVTbxKm3jFFYk3YuWS6nfY/y/LjVgdDg/g9wyTtRGrAK/48OK2Cifw1L59WjHAJ8v3gk+DB7jQzQBe7p3h4O8P4Y8eaaGN5V38z4ab3D/ixK4OcPoQzFLz1THot3CsTBGvgtwNoQBjO/Txyfi7YNbKn88FEx+J77dh1OEZ8IhThYGmCr78EsC4wXHc7NlG6VzlrfDeynYY+HcguFtJeOig7pA12L24K7/NhKycroQvF+DUaSzbC2wzPFZ3E73kSGiwldj1MDJmCV6ye7okWwV5aIQtnC+EM7aiQ4PlwDpvwIYJTUQvgSE4NqYfJp/+xM7RwCC2Mmycv4xUAzkFGLen4oez8zF2iRdrRTk0HdUHZQ7Mxn2R500Z+zHJa4//yvnyCzDuQSNM3xnF9gLbfmklfku3alfofd0PG1E0JruxzY2Px2vt0GeNHz/+m7CE+HNj3uRZgPGbgbPN19dPnY39/j9RomonTGobhrFLNSUCjN8wlm1/oqjFX7kWYFzb+R/j/sT9GPdnXnhxh56uLr/xarVKhfHHuKUSytPlaRWdGy77PVMkSf+iZP889Z0lV379ngRdw7T7kaWWmcpcOrcgT3XSxflKQPqniOwb2KOfxRDULi9ci/ri8zO4P9mLw08P83/bmnViP0V0PO/1M8/XV/a7suol8nuvrgTERHzFzxSgeL6XnfduZ1kCt5dRRDx/Sn7cKwlsIUyT/s8xSSq3MnXBjxpKZLWvkgK7Kg59Xunvya88E0SwMJDFIhjuT92WRoHVU9EKJxDCFl60wyqT7ZJV7vzelfk4tnPbhYSzk1Flgib28Sv/n2JZezs8GHGL9zIr4siTAFNEg6hMIkAECh4BzhPmcmM5H46UdXBhRyermdn+BFHB69l/uUXCrV+WGm7Hfbbdy7+2B/Kb27j0yxiNquiz0DDb9uTELAycGYyxV9ieX2x7HG7PwZ4+w7LMOf0vW7Ew9j2Bhfba9XqM4df3wqHav/UTFl/gcy0YpWpXZ2kvOkj8+AAb/hyGI2yrJa+1NkjitmFaZoiD91moVEHRFxJghXH0UpuJwL9AgMsJu/TqFO4E3WQ/wi3cFLVOhbpoVa0t83zZZfrTQ/9CU6nKQkRA8OYwho9YhiuvI/nwZwm2D+OYlZswPV9+TqYQgaCmKplADG4tGYY/dz/EF+69kqXlNOwxF+vX9s10A+P8biAJsPwmSuURASJABIgAESACRCAbAiTAaIgQASJABIgAESACREDJBEiAKRk4VUcEiAARIAJEgAgQARJgNAaIABEgAkSACBABIqBkAiTAlAycqiMCRIAIEAEiQASIAAkwGgNEgAgQASJABIgAEVAyARJgSgZO1REBIkAEiAARIAJEgAQYjQEiQASIABEgAkSACCiZAAkwJQOn6ogAESACRIAIEAEiQAKMxgARIAJEgAgQASJABJRMgASYkoFTdUSACBABIkAEiAARUPn87ZuAMBABIkAEiAARIAJEgAgojwB5wJTHmmoiAkSACBABIkAEiABPgAQYDQQiQASIABEgAkSACCiZAAkwJQOn6ogAESACRIAIEAEiQAKMxgARIAJEgAgQASJABJRMgASYkoFTdUSACBABIkAEiAARIAFGY4AIEAEiQASIABEgAkomQAJMycCpOiJABIgAESACRIAIkACjMUAEiAARIAJEgAgQASUTIAGmZOBUHREgAkSACBABIkAESIDRGCACRIAIEAEiQASIgJIJkABTMnCqjggQASJABIgAESACJMBoDBABIkAEiAARIAJEQMkE8iTAEhITERQcjODPXxAZHc03Xa9kSRiVN0A1IyNoqKsruTtUHREgAooi8Dz0CS6/Oo07QTfhH/acr6ZOhbpoVa0tOpn1QF1DC0VVTeUSASJABIocgVwLsC/fv8Pb9zl0ihdngqs8E166PJzI6BgmyD7jZ3w8mtWrCwN9/SIHjTpEBP5rBLbf/RvrbqxA1K8fMrteSrMEnKxnwqHF5P8aGuovESACRCBXBHIlwDjxdfuxD8xr1oRp9WoyKw54FwS/N2/QulFDEmG5Mo2SLwrxwamHAjTp0QhGSq46z9VFv8a16yEwsraCWck8l5Z9AcquL/sWKfSMEf/rjUuvLvN19G/QH/0aDGGerwb83/5hT+H+dC+OPD3C/21rZgu3AccU2h4q/L9GIAavPG8guKIV2psJX/TTH4KEp9g9yx0pA2ZiZBOdAgko8NQybA62xvxxraCMaapAQhA16tOFtVj3pA6mzOyCygWwoYKf3tg2/yLK/TkXvWuqKKyFcgswLux4+fYdmFatmqn4EreWE2EB79+jU+tWFI5UmAlzUvB77Bo8GFuMF+H+AmvZE9jFv2A4IgW7QlzQJdMiE/Hh7Eo4uVzCy9BoqJeqgJptB2PWnD/QkM0o73aPhP3Wqlh5dx7aicoIv7kEg6c9hNnczXDpJlvaeU6rh4Ee/XDSZx5a5KQ76c4RvNmCDm1Pw+7mOUxS4M0irlbZ9eUCSb5dwnm+Flyeg5KaOthpfxitqsseP3feXcfIw/aI/vUTCzotwaiWU7Jsw/Nz1hjtXxwOAy5gROXcT3BBl9uh/X0tLB13DgP1c19OvgGjguQmILi+GM1nBmLcQTcMq57RhgIEYkPH9jhrdwUeE2rKLP/ZahvYevTGzcvjYYKs5yl5GpjXuUm6LkHwHtg13Y0W5y5jVsPCkp6TNUtZtkt4eQCjx+1EQt+/sWNcfWinn6+jT2NkvXnQ2eaFjbZMUEc8wva5y7Dt3htEJZaEXpVa6DN+IaZ3riiPqSB4tws9rJehxAovHBpYQa5rM56ciBszmmPI51nw2dUXZfJYWmaXyy3AOFHFhRjbtWieoyZ58fqwGwAAGe1JREFU3rvPhygz85TlqBA6KU8ExBPYyjpbEbLeNtcCLPrKDLQefBV1nZwxvGUlIDwcH176wqDfDPRgE+frjd3RZrmpRMQlvHRFD1sXFHM+g5MTakEjk14EX3SBS0BTzJ7UJlcDXdmCSNn15cn4ebiYy/nqv6czH3Z0H3I2U/ElroITYf32dgcXjjwy9GKmOWECgQ9cXDpgU+wvVKt/E552jXLUSoHgDBwXLYLpCG+ME4m2mICtcHlaHAN6DoVZYXmm5ai3/52TBOzlr8IIf8zO5AUqOwEmSPDARBMH/Fjri919SyK7eUpc3pu/ApkAKJYl6LzOTWkLj8FxhyZwVFkJ3+09C4UXLFuW6WwniGC2aDcKXlZb4cmeNbKEC/+cOGCJC/dmwIKJa9dunbH8Z0/Md+qJWmXC8f3jB3j9aII1o5rx+LjxUdGlukhcZ2GuaOYFXXsKWgNnwr5W3icDge/faG17Cj0vXcO0eop5uZNbgMkrqOQVbAVi2omPROjbdwjRqg7zGnoozt6oYr5+QsCrSBg0qIvKutLGTf2utJkJKpUrISU04hER+AJ+EXowNjaEoV5xUfey+Dw0EiFv/RBfsQFMK5WFbhrVIrwuMM4QNYwroLS4OAk02W3JTIDFR76D3/NIlK5bG9XvzcnWA3ZhUg2MeDk10xtBWoDZsLegIQMWINr+IPbPbJorYQXeDv54izpoYs7ZIfVIiPmG108DALP6MInajy4ZPGCMVSjr31vAuG51Kfa5G2HKri93rczfq9ZeXwiXG6v5sOO6nm4yC4+Mi8CiS39hnu0a6GmVhuPJEXw40snKGVOt58sW+88d0eBEBOa3i8O0u8Y45ryMTcRpj8TYz/gelwSol0GFklrCifj7NgzYtB1WUgJM7h7/CkdYyFM2pkxhXtEIeppyl/AvXyC6xz/Eo4ppTZTj5qIs7pPU72rAPN2cIRnTxqaoop8612T1+fevH+EbUhz1ZNxT/HUBH6FVJf08KJ72xPdz2rbIFGAJP/D19TO8YnZqYBINt26Ze8AS2APaeEQk1r7cjv4lVZDdPCUQ3MVs8wGIWfcuEwHGzR0/oCbFJIPRs5ubMuEQ7T4aJpNTsFHU1n95MGVbfbYspQTYRP3bmN1zBM6ZLsOZzX1RRcYbt/hZdKD9CXjPbAj+ZbbNctTZnZktgLA9g9DwQKtMnzvcuPueXCKLOT6r53fmz1SB4CmWtbDDqZ7CtirikFuAnfC4IldelzhfrFfHDopof76VKRAw5V5xHN50aIMvD59BtRTw7f1X6HZzQKd3x3A6Shc6P8MQElcHC66cxFgW6hIkBGDPyOGYc/cXDMtqIe5bGIr32YJrK22gG30X838bCrcv+jAspYakqO+w3vQcLk3vy/68/S04mwzGMZ0qYEWxsj4guszv2HllGTqySYWry7VfLyx4ogYjQ23ERhkxgfYQ8SK3fJZtEbnwUz1giXjpOghdFvlA3agCSiVGI1lDAyHBbbIMQd6a3Qh9T7aGq6cLehlkfMOQCDC/LjiXzVuQtOG469qe6cLfYDX5cOJhVP2jBp6ceSqxg2r39fBmb43cG1X4xRnoMOYQIvQYK/VoRKnooFiwHsaJ3qAFEbcwv+8YuIWUZOyBqNAo1J53GqdGVoLvuoHourc6tl1biy6lk+CzrDO6XO8Oj9OOqJdB0Apbmdv6Tna+Dbsm61D7yAOsbCPkJQg7gD4NV8NE6rN8G8T5XFCf3Ta49/6+xPvFiS3u4IQWd3B/99/TEX6fX0pEmtgL1qJqcxwbdlVGixLgdagmJmAnHvYIxwQXR5S1C8LS+uLZOhyXDrXFpIAgQLMStJOCYd05GuM/t4TVQ+HKS/HRv1sMXDASlc+lYOf8bdBm5f4e7ox74ydK8hhvH66CAd+En2k/c4b96R0I0SjPvA/RCEswwZyh1/MUAs1n5JkWx90jlofLoIvmM9yRmosGDiuLm4dT75OSv7vBa60N713hwv99RuxBsB67x7n+Rplg3gV3jGJz1+uDw9B7qjcEVfXBZi6Elx2FK2fHICmTz7GjP9osfoVyhiWhlhSN0OBENF7C3VPCkGCae4TVlVytGlQfGGORKKUhq7akF2CcF8Wx03gcjCiJqmXVERWlghIqwdAfd1VmCJKbl/rdGwrPq5NRi7Ulq3mKq6v8cPc0nBvMvorL49/x83/iNEeEbF4J71hz3iPX5cJvuZ+bZHAQvNuBLq1Wovb+V1hnk7X3TVljK6t6spvzxbabdW0dMPU3rFWZjMvHx6NWJuEO4fw3CwY7XmNLNw3RfDgLMX+dw5mpddO8ZIvF2tLnAkkTi6n04Z9RNTkv2pmWmFn3AlYf+oiU/tsQ/HcxZkMHqIjEHCceR4f2hX345dTnd2x1TD15DtNYCDi7ZypXqYdTLQwJcMQddm9UV4BBSICJoAoFmAO8Rx/GzYUt+IHgs6wtOm+qgWWPtmCkYXFmMKGr+5WzcCL4tNMeTXbXx2mP2WjGLkjwWY123W7hj9sn8ecrZxhOVsV+35XowA/GRCQkqEP9Gsu1kvG5hkY8YmJUoSvyrgkijmBQHWfoiwYTl+PQaXcdbL+1Ab+VZoIs3htzrfrj/mBhXkSWban+js+hEAswPhehyRKUXncb2wcYMI9dIr7sG4P60/WyFGCSifGLFhraDMGQ8b+jT2NDyU3DPySW/YCJaQhiLDZm6oJOP44zCDD2RlRy7jUcGmfMl833ba4R37bOCbcw3WIQ7gw8iitzm/Lfx99dDMs+dzGEF2BJotj9NDzYOgAGjH04e+u0cNbDzqBV6MCE7IZe3eFWyxWeo16gX2cP2F08ikmZuKwFeapvCoJ6tsa62nvwZHlb3jPK9aXp7ma45DUV9RVwQ+dnkbVXlOdzuvymfeSL5cQWdxwZ6iH5mxNfdcqbwX3oFV6YcaLMfFVlPgzpPyMsQ3MEiSyMuGIMdHjRFYeTbjUxX+sgHg7sCE6iBl+1RZs7PzBl0BVMqsF5vhKQmKgBbkcbwcdV6OLmjh5SHjDBwxEiAbYb7Z9NRKMTvnAc64kRBuweSbyC2av7I9z6HVybPuD//aW1P1ytKrC6wnFshxmma+3Bm0Fd8xObQsri763lZbH6yXYMYS8/gujjGGrmiJejD+DqbEveUy7tgRbeJ8PxeZ74Ho/AkWEt4Kz/D4LWVufng8t9r+PcmGrC9iaw+UnjI1xlfs7gx/xAim4J0b2eCO9FNrC7ZS98aeJzeibio+MlnJvCpRqknU+yast7JhbTCjDh/Wt/u49kXk0/16UFHMP6VR9TtDch6J9u/D2W3TwlnuvFD2quPPFnVy2nYtvK31G3jBrUtPUQtjXdy2FWc1M2HLjcWnE9gfOv4/yfinik5+/wy5YlL2ivwNRUHR90h2UpvnjO7BnZtNsVDLp2EY61uLCe2BlwHyrVLNH792EYNcwaZlJRJunng4moe+JnTf8trphlxT2DikOvlFcGATbcuz/2nF4MW+6eEc3lPiIhn90zlauKv6fW1sE+9uwQzn75e8gtwIpqCFJ8Y7xib0PiRM/0OU1pcxFKsnyD5lhvth3nJ9QVWcULcxv9BS0mmjZU3IDWnQ6g6tRlWDAmdUDxcWUZn0vMyrm2maOhdIUH+Eui5r/xdc0y2iLJ4ZKrLbZBaQQY5wY3nayJ7UEb8ZvoTYWbBCVJ+Hwb4lNHmloJ6ItDqyw08Or6PqxftxWnn0RA09wBbu5zYMVEobQA+6Cb8U2IdxX/YGEl8aGlx7uNZQkwaZe0dNs6Z7iB2U0tlYQ/0fgeH1547XQFG7qJVky934cBvT3RR+QhE+amuSG4dCQqO4jz0zg39XdIN6946QrQe5F+wpCvvmG+41F3Tmns81kKK40QbGeCbI/ladz6q17+3skKKC29AOu3pwP8P7+CeXnOzwDe8yUtvrjPxAKMS9p/MeNzhlbF3LGHxfWy2O28GZxTkPu7wdUUuDi5o6dOKPa51sJsLTe8HdaHF2TSR3YCrBOfW2aFu/Wf42jHKkjkBNmpMCxmZdu9c0T9Y36YMmIXuomygt/ftEPfD33hOXkGZKd2KwBqLovMMBeJXhil56s098mthajdPwBON9bitxLCSoN2D0dvz+5MNA2BL8tFmvzGDivWOkq9RAlzlDJ+Lm608B6JL66PyN29Uj1DfF33JR5o7uyct4UJOOkwlvEzPuxzZeBFeDIxx5eVRRJ+pvmtWcxTWQkwaZ5c3XLNTdlwkBZg6evJ5bBQzmVZsZQSYG+iWQSFjyxkni+VWb5fPMs3PbZ1DTbs98K7RCN0WrwLbkPMeEGdmQCTzjfmx4nonpD2gEmnzMh6Zmb+TBXOCOnvu/wGLrcA43O6vnxBu+bCBLnsDnkFW3blKep7eQXY5QnFeFGz+hPL7WIhRvGholIVo/btY27+JHy5uhHj5uzEzSABanSdgA1rxqIZC3vJ/jwSF6b1wrjDEdDj3Pxx3/H+y0/Yc2LONq2ASj8pZdcWh5ppPWCyBlWaCTOdm1613jSZ8ff45xvRs9safBh8EP5LWqcOVnEIsumaNLkAXL2tl/lKWKkxtzG3KECuSU5Gwm5aAXaFfws6ZyAM5abapR2W3liEjrzgjMCBPxrB6VoTLH1wBA5GzFsimuSl3d08e8G0DAnC8tTXAUJPRNw6P2yoe4itgjqLHqI6FTWW86tcWSFIsQjj6kgvvrjPsg5BRjGvU1VMCm8C+0rG4O+a5EDcDHwIi45BcG0Vhn/WN8PKMnvZmLLL0I3sBBi3vCTYoz1a+HdiosoJoeJQJ/OuqTFPWaVzZ2CgzYXcUo9iVVzgad81g9jLL4b5VY7cAoy/h8/DgA8xSvXXZgG8ltpAPd4fB/+aiYVnniBOuwEGrN6Mpd0rZ/o5WM6Sfa9VeKJRgd1XSSysz7zcZsJ5QVpAiVchZ5xPsmhLGgEmvH/TCMssV0G+xz/drLCkZuYLjNLPUwoTYLLmpnSry2U9Z/JrjCijnAwsRX1ODUGOxNF909hzTrYIE7CFXFWGPINzZivWE77izF/d4XC0BlY+PohhFYQv9uIUFWkPWF4EmPiZKb0wTZbQL3ACjN+G4tZtmLIYf3YrG/ltKIKC0MmydYHfhkJeAeYxoTzv+l5QaT8vPrI64kPvYMWQ33Gk+YE050p/7md9hg3MMKzw24VBXIgxjZpPxpmxZhgdNgcPTrAHCass7WDJui3p3xJlJYKm8YDl+E5O5Ns1RsNVIqTEN4XNh+P4s4cjHlltyzYUKZcA4zxgXU+h93kvtpRbeJOnFUTCN2if8fdwdIjspcjhbNKwnvkD7Rvcx4mfTrjtPphnKuvgXeZ5rI/Loxj0Yzlu1HeD1b2BhWYFlKwkfM7DxYkw7hCHHaW5ZZWEL/iyGX1dl0Kv8Xr0Kps6Qfv5/IlNWIKHYwfiFhNoU7AR/g6DkX7Hp5wIMHGiftthyxF8YArK2vvCyZjdTwFz0OoQ89JMuIzBhXC7CrkFGBu3zbo9xnjRQyzTW5rzbhx2gt30GMyQPjfN58sRO9Iau1u44xYL+6f3StR8uQnW7XaghXSuo5Tw4LzWWbVF2isyUeQBk058zm4VJJ8oHjg9izydtPOUwgRYNhx4D5godKwtyoHK8VRbYE5Mx1JadOo/xtI/BmJrFnlgwqT7taifRQ6cgOPY/rwkYqEIAeYxoWo2z1ShB4xLQ+p6tY8kvzC/zSC3B4xrgGQjVhO2ESsTYrKOwrYRq/wCjOVdsdUZLecLMPeaG0bXEGZwJ8SEIlJgCD2VSPzS1BOtYhR6XJZW248n081lfu5neYJ5Wr7BhRdgSYgJcMMfVstQRZQDJlkOzEKacwZVwqejm7F4zRloifPRsmhLuZLCfXRSc8BYImSrBYh3dMfhcRbQTQmF1yoH9NtilmUOWLCfD34ZiFc4sTyPu+vYSsfNKD7/Nk6OqJTpNhSxg3fi5JK2ma6ElEuAJbAVTM0G4pzVBlxY2QMVi4kfIJ9EIZAkloRrib43O+LAsfmwES0WiA8NRayhIUpHXMCfrWdCZbUn87h4YqjFdHybeYHlY8gOQgnyWB+3aIALO1v+5gldkxcw+es5W3mV2YYc+X175608bhuKfnts+Tww6W0o0ifji2sRe7+48KP70EsZtqHgvFPNH9TGIVH4UXxdIvNOmZ0LxByWu2Xr25nPARvd+ximmrNcLbZAJDKR5Xdos4TdkHWw274atXu8xcqGqnxumNrT1Bww4QYrUXxemetPM7xJ6Y5LovCiINET89f2gFc1dxzp0xnl+PhmHEK/xsKwXMH/tQ65BZho3N7sugvHF7TjcyFZtiRCQuNQ0VALEZEszUG0KjvhwXK0tnvGxNou2LFpLOPnSxA12AYH2ooEWHwozs2xh8MzUQ6Y1FYCK9aORUs8wO6Fa7DtoaUob1N4z8puS+kMOWD8/XueLfY5vwy9DFXZXOiO8T1nIjSTJHxulZzFqpo46rcQlqyX2c1TAoEnHKsNQ9CsGzjC5cCx/Dd19esZPG8cMbnmpmw48AKMT6HwFOWrKmZrg7zd9WmvzpZlZttQmC/G4V2DMyTji1egBsy4L3xBZptaP/moi6riFbrx73Bggj2m3u2Iw3zaBttf0rUXWm4yxf5HLJ+6GJerqI736bY84lotXwiyZup2JZk8U1mCBO9kcS61Ba9ZpEYRs3auBJhYhHk/84WOtjb/2496uty6GwEiY7ifIvqCn7GxaFa/XqHZBT83AowLZd1Y8DuGbfVHol45aMd+RZyOLVZd24p210ehpSNLVmahMJ2f3IpGe2y9tBINL8n+vLPOM6zs2A8uQVosTJIIzSb90IQly2tMF+9Vw22INx9jl3jhC8qh6ag+KHNgNu73Fm9OmHlbBlRIG4Lk7Bd+cRa6TDiAdz/ZHzrV0LWHCfz+V1KyaknWTXxvZTsM/DsQ3CXCQwd1h6zB7sVd+SXHsty1Qpf1BhRzPIHjU9KuchGXIs8kx01iCaJwyO3IBEBDDxb2NtDa/xI24lWQ4tWpVz5B3aAce2P4iv+3d/4xUZdxHH8fSlcLVs4iWUU419RWIx3V5pImGP1wBS7kSquJkcBytHBXUXPVBjQqalT+IzWc0/LSwXCmczg1U5yjIFtRJn+UQoPDwu1kBjKvz/f53p3HdT+I+36/l+v9/MeNe57P9/V9fnzueT6f95M0ex22dZTitBaIbKsNiOtpAfpZzkE4owTiT709p09YVo/92nBqZWBSMXKSNLMuvxCrFlT/iWN7VCHWUteTSjMsnBCrVwQFtOPFTbNaccKRO8FkPVh+ObqzOrF3WRq+3vEwSnt6oF96dA0W338M2/M0B/kMWpuXoup0v4TmJ2PVY3+i/pI/C3Iz/Ap3KvartRlzF/WoWDB/ufjbJjzvehXtF6YhzW6De9SLOVktOFy42EyEhtT9bx0wfZxsQ8kzb6G9bzrS0mQYuEWS5aVmdDiTUHPvKnwkyTQ3y/AYkozGhW+0YGeZB/XhPi+fB3dLBR55YQ/Oy3iyjdyAp4vS0dSVfTk0QcQ0G9e/jq09I0i5LR+VOQOoqLUHaQKGt+XYy/eFOGC+jO+Vxag7Oizv+SrMWFCEB+2f42ReeCFWfVdlK/J8u+Kx5ikt8LuroQBPvPejmsuyJSD+y7LeuB0wJWAdg4MSjN316BWRhKM9TiyW4WK6xtx7UZVfIVpgG9H+7jKf8x8YhSITchee89TgZxE4TR3YiZIl1dijzeW+Yr81D86NDai8R8+29va3YW2hE219o0iyO1RAfKYBDpjWD6KtqV6VVLEetsZv8WmhOXcXTNkB08Coy7j7tMu4B5XjpZXrU1OV8GrmLf+jy7j9QevBweoKkGjZ/HEe45P9XH6hDosO2HjKTF3fJ0rx4hd8kJuP/cUHJ2bTRLIlXF3KvnGkpk/U2IracFCAvhak/k8tMkPWm0lUElurJxD07wv2n0SlUf7F6vbis9bIbwdfReTIcmDF3c9i/k16DudPg99jx3db4DrhUn8/NDdfriJqib952fkakntlk1OM1uoag2d4CCOXgKsNrzv+xza+hsvJJaHj9a9zAxi+IBxCxnGkz/XxNB0zJjFfjO1+ERnr7CHZY5FtCffcmh2eabHnQuB3SVJagndubwpkGyv9M18iUSLnqWAOS+W6pLrcAnSuOaJODK6YYjDLMUlWyC7+AZWBWNigBKjQtdJCSKFrqsqef/NGXwKVOYbE5YCZYxJrDUug9yj2jc7BwgyZkJJFGqD1NTxV3Y8KnyYZqZGAmQS0nbD3v3pbHUeGK9qxY9UD1TGvIDLTRtadKAJudB/ox3XzZ8vx5rW4eKYTH5avxhci9eLXJDPbMiUBtLwLJYe2oDQzfhX0qdkbncO4tqDXpeOz43JUasZ51tSMTsC3dEmU2vQmHBd5ngjyi+bbFWVNLc+QWOLcFehee0COSs1zlumAmf+aDWnB2+tCyZo67D91TrblgRTRTCmr/xiv5OjbtCwkYDYBLSZs38k2dPx6WC7h1kVR75h1JxZl5sjOV0HEq4fMtov1J5qAB0dqVqN88zeQxG0VFrDg8Q1obCiKKMiZaIvNaZ8czOFqTq3/hTWVDpg575a1kgAJkAAJkAAJkEBEAnTA2DlIgARIgARIgARIwGICdMAsBs7mSIAESIAESIAESIAOGPsACZAACZAACZAACVhMgA6YxcDZHAmQAAmQAAmQAAnQAWMfIAESIAESIAESIAGLCdABsxg4myMBEiABEiABEiABOmDsAyRAAiRAAiRAAiRgMQE6YBYDZ3MkQAIkQAIkQAIkQAeMfYAESIAESIAESIAELCZAB8xi4GyOBEiABEiABEiABGyDZ896iYEESIAESIAESIAESMA6An8DtACf6mfTKoQAAAAASUVORK5CYII=;" vertex="1" parent="1">
          <mxGeometry x="330" y="190" width="462.61" height="140" as="geometry" />
        </mxCell>
      </root>
    </mxGraphModel>
  </diagram>
</mxfile>
